<?xml version="1.0" standalone="no"?>
<!DOCTYPE svg PUBLIC "-//W3C//DTD SVG 20010904//EN"
 "http://www.w3.org/TR/2001/REC-SVG-20010904/DTD/svg10.dtd">
<svg version="1.0" xmlns="http://www.w3.org/2000/svg"
 width="512.000000pt" height="512.000000pt" viewBox="0 0 512.000000 512.000000"
 preserveAspectRatio="xMidYMid meet">
<metadata>
Created by potrace 1.11, written by Peter Selinger 2001-2013
</metadata>
<g transform="translate(0.000000,512.000000) scale(0.100000,-0.100000)"
fill="#000000" stroke="none">
<path d="M2560 4851 c-81 -16 -124 -30 -267 -88 -75 -30 -189 -106 -185 -122
1 -7 -1 -10 -6 -7 -5 3 -25 -12 -44 -32 -37 -38 -93 -122 -82 -122 4 0 2 -6
-3 -12 -6 -7 -16 -37 -24 -65 -7 -29 -17 -53 -22 -53 -4 0 -5 -10 -1 -22 4
-13 7 -35 6 -50 -1 -16 2 -28 7 -28 5 0 6 -12 2 -27 -4 -14 -4 -48 -1 -75 4
-26 3 -53 0 -58 -11 -18 1 -61 14 -53 8 5 8 3 -1 -8 -6 -8 -12 -17 -12 -21 -1
-5 -1 -11 -2 -15 -1 -5 0 -18 1 -30 1 -13 -4 -23 -10 -23 -6 0 -8 -4 -5 -10 3
-5 1 -10 -4 -10 -24 0 -8 -38 33 -77 47 -46 56 -72 56 -163 0 -39 4 -60 13
-63 10 -4 23 36 51 153 20 86 46 175 57 196 25 50 66 176 74 234 4 25 11 50
15 55 4 6 10 22 14 37 8 37 42 57 102 63 27 2 78 11 114 20 36 9 124 19 195
21 72 3 132 10 133 15 3 6 10 5 18 -2 12 -9 13 -9 9 3 -6 16 -8 16 83 22 35 2
69 9 76 15 7 6 31 10 53 9 22 0 45 2 51 6 7 4 12 2 12 -5 0 -7 8 -5 20 6 11
10 20 13 20 7 0 -16 37 -15 43 1 4 10 6 10 6 0 1 -7 14 -13 30 -13 16 0 37 -3
46 -6 20 -8 79 -120 81 -154 1 -14 6 -36 12 -50 5 -14 7 -50 4 -80 -7 -73 -4
-171 7 -184 5 -6 11 -36 15 -66 5 -46 34 -326 38 -367 2 -18 28 5 28 23 0 8 7
14 15 14 8 0 15 7 15 15 0 8 -6 15 -12 15 -9 0 -10 3 -2 8 6 4 14 25 18 47 4
22 24 65 45 96 34 53 36 62 35 128 -1 39 -4 74 -7 77 -3 4 0 16 7 28 7 11 12
35 11 51 -2 17 1 35 5 40 5 6 7 29 6 53 -1 23 1 42 5 42 8 0 4 109 -6 140 -5
15 -4 20 4 16 7 -5 9 -1 5 8 -4 10 -1 16 7 17 8 0 5 4 -6 9 -19 8 -19 9 -1 9
17 1 16 4 -8 24 -21 19 -24 25 -14 36 10 11 10 13 0 7 -7 -4 -15 -1 -18 8 -3
9 -12 16 -20 16 -8 0 -14 4 -14 8 0 4 -12 9 -26 10 -33 3 -46 11 -38 24 4 6
-3 8 -17 6 -19 -2 -24 1 -22 17 1 11 -3 38 -9 60 -6 22 -11 45 -11 52 0 7 -4
10 -9 7 -5 -3 -5 -10 -2 -16 5 -7 2 -8 -5 -4 -7 5 -10 15 -7 23 3 8 1 11 -4 8
-6 -3 -10 -2 -10 2 0 10 -70 49 -82 45 -4 -1 -8 2 -8 8 0 5 -17 12 -37 16 -21
3 -48 13 -60 20 -13 8 -23 11 -23 7 0 -5 -4 -2 -8 5 -10 14 -97 46 -201 73
-92 24 -241 24 -361 0z"/>
<path d="M3450 4518 c0 -10 19 -9 45 2 16 7 14 8 -12 7 -18 -1 -33 -5 -33 -9z"/>
<path d="M2306 3988 c5 -8 2 -9 -9 -5 -10 4 -20 0 -26 -11 -6 -9 -11 -14 -11
-10 0 16 -47 -39 -53 -63 -6 -23 -3 -27 18 -31 13 -3 22 -1 19 3 -7 12 -1 11
32 -1 21 -9 31 -7 47 7 14 13 18 13 12 3 -8 -13 -7 -13 9 -1 18 15 54 18 96 7
14 -3 36 -8 50 -10 41 -6 120 -49 120 -64 0 -8 -6 -12 -15 -9 -8 4 -17 2 -20
-3 -4 -6 0 -10 8 -10 9 0 17 -13 19 -30 3 -19 0 -30 -8 -30 -6 0 -11 -11 -10
-24 0 -13 4 -22 9 -19 4 2 10 -3 13 -11 3 -9 10 -13 15 -10 5 3 7 9 4 14 -3 4
1 10 9 13 21 8 47 147 27 147 -5 0 -12 14 -16 31 -6 28 -8 29 -24 15 -24 -22
-34 -20 -26 5 5 15 4 19 -4 15 -6 -4 -11 -2 -11 4 0 6 -4 9 -9 6 -5 -3 -15 1
-22 10 -10 13 -10 17 2 25 11 7 9 9 -8 9 -32 0 -29 -1 -73 15 -24 8 -42 10
-45 4 -4 -5 -13 -9 -21 -9 -8 0 -12 5 -9 10 4 7 -3 9 -20 6 -15 -3 -38 -1 -51
4 -19 7 -23 7 -18 -2z m321 -130 c2 -17 0 -19 -7 -8 -5 8 -6 18 -4 22 8 12 10
10 11 -14z"/>
<path d="M2555 3930 c3 -5 8 -10 11 -10 2 0 4 5 4 10 0 6 -5 10 -11 10 -5 0
-7 -4 -4 -10z"/>
<path d="M2995 3929 c4 -5 -7 -6 -23 -3 -19 4 -32 1 -37 -7 -5 -8 -4 -10 3 -5
17 10 15 1 -2 -13 -11 -9 -16 -9 -22 0 -5 8 -3 9 6 4 9 -6 11 -4 6 4 -5 7 -11
9 -15 6 -9 -10 -8 -29 4 -38 6 -5 4 -7 -5 -6 -32 3 -51 -1 -45 -11 3 -6 -1 -7
-9 -4 -10 4 -16 1 -16 -9 0 -21 18 -25 60 -16 19 5 50 9 68 9 17 0 32 4 32 9
0 6 12 6 30 1 17 -5 32 -5 35 0 8 13 44 8 39 -5 -5 -13 54 -14 73 -2 7 4 14 0
18 -13 3 -11 11 -20 16 -20 6 0 7 -6 3 -12 -6 -10 -4 -10 8 0 10 8 19 9 22 3
8 -13 46 -1 46 15 0 38 -27 70 -54 65 -5 -1 -4 4 3 12 20 24 -7 30 -187 42
-36 2 -60 0 -57 -6z"/>
<path d="M2819 3878 c-6 -21 -5 -37 2 -32 5 3 7 9 4 14 -3 4 1 11 7 13 10 4
10 6 1 6 -7 1 -13 0 -14 -1z"/>
<path d="M2330 3830 c0 -3 -12 -11 -27 -17 -30 -14 -83 -56 -83 -67 0 -4 12
-11 27 -17 20 -7 34 -6 59 6 19 9 56 15 91 14 32 -1 76 0 98 1 22 2 50 0 63
-4 12 -4 22 -4 22 1 0 9 -49 40 -105 66 -22 10 -30 16 -17 13 13 -2 19 0 16 6
-6 9 -144 8 -144 -2z m170 -54 c0 -2 -7 -7 -16 -10 -8 -3 -12 -2 -9 4 6 10 25
14 25 6z"/>
<path d="M2495 3820 c4 -6 10 -8 15 -5 5 3 11 1 15 -5 3 -5 14 -10 23 -10 12
1 10 5 -8 15 -29 17 -54 19 -45 5z"/>
<path d="M2946 3801 c-38 -6 -39 -7 -22 -23 13 -13 14 -18 4 -18 -8 0 -19 5
-25 11 -8 8 -16 8 -30 0 -16 -11 -16 -11 4 -6 28 8 40 -13 17 -30 -18 -13 -17
-14 11 -16 17 0 42 -3 58 -5 15 -3 27 0 27 6 0 5 -7 10 -15 10 -18 0 -20 17
-2 23 6 2 17 -8 23 -22 10 -24 16 -26 60 -25 27 0 58 -5 69 -13 22 -15 63 -17
83 -4 10 6 7 15 -14 40 -15 18 -33 30 -40 27 -7 -3 -16 0 -20 6 -5 7 -2 8 7 4
8 -4 5 0 -5 8 -11 9 -29 17 -40 18 -65 4 -82 4 -94 -5 -7 -5 -15 -7 -19 -3 -3
3 -1 6 5 6 7 0 12 5 12 10 0 6 -3 9 -7 9 -5 -1 -26 -5 -47 -8z"/>
<path d="M2585 3640 c-3 -5 -1 -10 4 -10 6 0 11 5 11 10 0 6 -2 10 -4 10 -3 0
-8 -4 -11 -10z"/>
<path d="M1940 3593 c0 -33 16 -53 42 -53 10 0 21 -7 24 -15 4 -8 11 -15 16
-15 11 0 2 51 -10 60 -4 3 -12 14 -18 25 -6 11 -21 21 -33 23 -17 3 -21 -2
-21 -25z"/>
<path d="M2532 3537 c-31 -33 -68 -148 -43 -133 5 4 12 0 15 -6 3 -7 3 4 0 25
-5 37 15 89 34 85 4 0 17 3 30 8 22 9 22 10 3 26 -18 15 -21 15 -39 -5z"/>
<path d="M2561 3413 c-12 -8 -26 -11 -31 -8 -6 3 -10 -1 -10 -9 0 -9 6 -16 14
-16 8 0 18 -5 22 -12 4 -6 3 -8 -2 -5 -5 3 -10 -2 -10 -12 0 -12 6 -17 18 -13
10 2 15 9 12 14 -4 6 3 5 15 -1 17 -9 21 -9 21 2 0 10 8 13 25 9 30 -5 34 14
5 23 -11 3 -20 12 -20 20 0 19 -36 25 -59 8z"/>
<path d="M2770 3405 c-24 -13 -24 -13 18 -12 26 1 42 7 42 15 0 16 -29 15 -60
-3z"/>
<path d="M2835 3380 c-3 -5 1 -10 9 -10 9 0 16 5 16 10 0 6 -4 10 -9 10 -6 0
-13 -4 -16 -10z"/>
<path d="M2370 3212 c0 -13 120 -116 155 -132 l40 -19 23 25 c13 13 27 22 32
19 5 -3 11 -1 15 5 3 5 -1 10 -9 10 -9 0 -16 5 -16 11 0 6 -9 8 -20 4 -12 -4
-26 -2 -33 3 -7 5 -27 13 -44 17 -23 4 -33 12 -33 25 0 15 8 18 38 18 53 0 66
1 60 7 -6 6 -208 13 -208 7z"/>
<path d="M2635 3200 c-3 -5 1 -10 10 -10 9 0 13 5 10 10 -3 6 -8 10 -10 10 -2
0 -7 -4 -10 -10z"/>
<path d="M2680 3190 c0 -5 5 -10 11 -10 5 0 7 5 4 10 -3 6 -8 10 -11 10 -2 0
-4 -4 -4 -10z"/>
<path d="M2820 3186 c0 -9 5 -16 10 -16 6 0 10 4 10 9 0 6 -4 13 -10 16 -5 3
-10 -1 -10 -9z"/>
<path d="M2760 3179 c0 -5 5 -7 10 -4 6 3 10 8 10 11 0 2 -4 4 -10 4 -5 0 -10
-5 -10 -11z"/>
<path d="M2870 3175 c0 -8 9 -10 25 -7 17 3 27 -1 31 -12 14 -36 -11 -44 -142
-44 -69 0 -130 -4 -134 -8 -5 -5 13 -8 43 -8 29 1 57 -2 64 -8 7 -5 17 -7 23
-3 5 3 17 -1 25 -9 14 -14 13 -16 -10 -22 -14 -3 -25 -10 -25 -16 0 -5 8 -7
18 -4 9 3 33 8 53 11 26 5 54 23 94 62 31 30 53 59 48 63 -14 15 -113 19 -113
5z"/>
<path d="M2738 3033 c7 -3 16 -2 19 1 4 3 -2 6 -13 5 -11 0 -14 -3 -6 -6z"/>
<path d="M3266 2874 c-3 -9 -6 -34 -5 -57 l1 -42 13 30 c16 35 19 71 6 79 -5
3 -12 -1 -15 -10z"/>
<path d="M2164 2618 c-20 -40 -40 -74 -45 -76 -5 -2 -9 -15 -9 -28 0 -33 -26
-81 -50 -94 -11 -6 -18 -16 -14 -22 9 -14 58 39 77 83 8 19 29 48 46 66 26 26
33 43 38 87 3 31 3 56 0 56 -4 0 -23 -33 -43 -72z"/>
<path d="M2240 2661 c0 -26 77 -188 110 -231 15 -19 29 -41 32 -49 2 -8 31
-33 64 -56 60 -42 82 -78 99 -160 l7 -30 15 30 c9 17 22 38 30 47 17 19 23 10
-85 111 -29 26 -52 51 -52 55 0 4 -23 36 -50 71 -28 36 -50 67 -50 70 0 3 -14
22 -31 41 -16 19 -42 54 -56 78 -28 47 -33 51 -33 23z"/>
<path d="M3027 1582 c-21 -23 -22 -42 -1 -42 8 0 12 -4 9 -10 -3 -5 -15 -10
-26 -10 -10 0 -19 -4 -19 -10 0 -13 13 -13 45 2 27 12 35 48 10 48 -8 0 -15 5
-15 10 0 6 9 10 20 10 11 0 20 5 20 10 0 16 -26 11 -43 -8z"/>
<path d="M3082 1558 c-12 -44 -5 -71 10 -44 13 23 23 20 36 -9 13 -28 38 -35
27 -7 -18 43 -17 52 9 63 19 9 23 15 14 20 -7 5 -23 2 -35 -6 -29 -20 -33 -19
-33 5 0 35 -17 22 -28 -22z"/>
<path d="M2973 1538 c-15 -54 -8 -62 12 -15 17 41 19 57 7 57 -4 0 -13 -19
-19 -42z"/>
<path d="M3385 1563 c-4 -13 -13 -23 -20 -23 -12 0 -31 -78 -20 -88 3 -3 5 2
5 11 0 10 5 16 12 15 14 -3 41 68 34 91 -3 12 -6 10 -11 -6z"/>
<path d="M3202 1554 c-41 -29 -23 -84 28 -84 59 0 77 70 23 91 -30 11 -24 12
-51 -7z m56 -38 c-2 -13 -12 -22 -26 -24 -29 -4 -42 26 -18 44 24 17 48 6 44
-20z"/>
<path d="M3422 1554 c-27 -19 -29 -60 -3 -69 42 -13 106 46 78 74 -16 16 -49
14 -75 -5z m56 -20 c-5 -25 -35 -41 -49 -27 -9 9 -9 16 1 28 17 21 52 20 48
-1z"/>
<path d="M3516 1543 c-4 -15 -9 -36 -12 -45 -7 -24 22 -24 30 -1 6 15 10 13
32 -12 21 -26 24 -27 22 -9 -2 11 3 29 11 38 21 25 2 50 -41 54 -32 3 -36 0
-42 -25z m59 -4 c10 -15 -1 -23 -20 -15 -9 3 -13 10 -10 16 8 13 22 13 30 -1z"/>
<path d="M3615 1499 c-6 -37 -4 -44 24 -72 l30 -31 10 25 9 24 12 -32 c12 -34
25 -42 33 -20 3 7 6 4 6 -7 1 -15 3 -16 16 -6 23 19 16 94 -7 98 -13 2 -18 -3
-18 -17 0 -31 -17 -25 -29 10 -6 17 -15 28 -20 25 -5 -3 -16 5 -25 19 -23 35
-33 31 -41 -16z m55 -30 c0 -9 -4 -8 -15 1 -8 7 -15 19 -15 27 0 12 2 12 15
-1 8 -8 15 -20 15 -27z m-10 -31 c0 -6 -7 -5 -15 2 -8 7 -15 17 -15 22 0 6 7
5 15 -2 8 -7 15 -17 15 -22z m100 -14 c0 -14 -4 -23 -9 -20 -5 3 -7 15 -4 26
7 28 13 25 13 -6z"/>
<path d="M3318 1363 c5 -27 5 -27 13 -4 6 13 13 19 20 15 8 -4 9 -3 5 4 -4 7
-15 12 -25 12 -14 0 -17 -6 -13 -27z"/>
<path d="M676 1359 c-49 -137 -147 -546 -146 -608 1 -40 18 21 35 124 16 99
89 391 115 460 6 15 8 30 6 33 -3 3 -8 -1 -10 -9z"/>
<path d="M672 573 c-3 -41 6 -63 26 -63 14 0 14 1 -1 13 -9 6 -18 28 -20 47
l-4 35 -1 -32z"/>
<path d="M890 591 c0 -15 56 -54 145 -101 44 -24 97 -56 119 -73 21 -17 37
-24 34 -16 -7 22 -95 85 -179 129 -42 22 -82 46 -89 55 -14 17 -30 20 -30 6z"/>
<path d="M410 537 c22 -11 25 -19 25 -71 l0 -57 -72 -29 c-73 -28 -73 -28 -73
-6 -1 20 -1 20 -15 2 -8 -10 -12 -23 -8 -29 3 -5 -5 -18 -18 -29 l-24 -18 28
10 c43 15 75 12 116 -11 57 -32 75 -65 79 -140 3 -51 -1 -77 -16 -113 l-21
-46 27 0 c21 0 32 8 47 36 11 20 35 49 54 65 l36 29 20 -38 c11 -22 30 -51 41
-65 l22 -27 398 0 399 1 94 47 93 47 112 0 c101 0 117 -3 173 -29 34 -15 70
-37 79 -47 16 -18 37 -19 380 -19 l364 0 4 23 c3 12 7 39 10 60 6 48 21 67 53
67 32 0 26 19 -14 45 -47 31 -59 78 -39 157 17 70 22 178 7 178 -14 0 -25 -39
-26 -99 -1 -48 -5 -57 -40 -92 -21 -22 -42 -39 -47 -39 -4 0 -13 -20 -19 -45
-10 -39 -15 -45 -38 -45 -17 0 -38 11 -55 29 -36 37 -64 48 -148 56 -38 4 -68
11 -68 16 0 5 -7 9 -15 9 -8 0 -15 -4 -15 -9 0 -5 -35 -17 -77 -26 -43 -9 -89
-24 -103 -33 -44 -28 -217 -32 -237 -6 -7 9 -26 60 -44 113 -42 129 -52 142
-45 61 3 -36 9 -82 12 -102 6 -37 6 -38 -22 -36 -16 1 -34 5 -40 10 -7 5 -14
3 -18 -7 -3 -8 -16 -15 -30 -15 -23 0 -41 -23 -31 -40 3 -5 1 -11 -3 -14 -15
-9 -80 69 -91 110 -6 22 -13 69 -16 107 -4 37 -12 73 -19 80 -7 7 -16 19 -19
27 -4 10 -6 8 -4 -6 2 -25 -29 -74 -48 -74 -8 0 -18 -15 -23 -32 -13 -48 9
-93 78 -161 33 -31 60 -61 60 -66 0 -5 -35 -12 -77 -15 -129 -10 -216 -26
-234 -42 -15 -14 -20 -14 -46 -1 -15 9 -44 32 -63 52 -19 20 -48 46 -65 57
-22 15 -20 11 9 -15 27 -25 37 -40 32 -53 -5 -14 -4 -15 8 -5 16 13 32 -1 21
-19 -3 -5 0 -7 7 -5 8 3 25 -6 38 -20 l25 -26 -55 2 c-68 3 -73 5 -59 32 l11
22 -21 -22 c-25 -26 -34 -27 -82 -12 -58 18 -92 40 -153 98 l-60 56 68 -73
c37 -41 66 -76 63 -78 -2 -3 -30 2 -63 11 -32 8 -68 15 -80 15 -28 0 -64 44
-64 79 0 23 -9 30 -67 55 -37 15 -96 48 -131 72 -35 24 -68 44 -73 44 -5 0 -9
23 -9 51 0 65 -13 89 -48 89 l-27 0 25 -13z"/>
<path d="M3529 459 c-1 -24 -1 -50 0 -57 1 -6 -12 -32 -29 -56 -33 -48 -38
-84 -25 -173 7 -51 6 -53 -17 -53 -22 -1 -22 -2 10 -28 24 -20 32 -35 32 -59
l0 -33 550 0 c303 0 550 3 550 8 -1 11 -39 78 -40 68 0 -5 -12 4 -27 19 -36
36 -94 60 -187 80 -228 46 -638 -24 -728 -126 l-27 -30 2 63 c0 35 -3 99 -7
143 -8 81 -42 264 -51 273 -3 3 -6 -15 -6 -39z"/>
<path d="M773 473 c3 -5 34 -29 69 -52 59 -40 60 -41 23 -8 -42 37 -102 76
-92 60z"/>
<path d="M621 427 c-1 -29 13 -46 95 -113 27 -23 47 -32 58 -28 13 5 8 11 -24
25 -51 23 -109 79 -120 116 l-8 28 -1 -28z"/>
<path d="M935 355 c38 -32 95 -67 95 -57 0 4 -28 24 -62 45 -44 26 -54 30 -33
12z"/>
<path d="M1248 325 c39 -44 98 -95 111 -95 9 0 -113 121 -134 132 -11 6 0 -11
23 -37z"/>
<path d="M1046 277 c3 -10 9 -15 12 -12 3 3 0 11 -7 18 -10 9 -11 8 -5 -6z"/>
<path d="M3068 143 c7 -3 16 -2 19 1 4 3 -2 6 -13 5 -11 0 -14 -3 -6 -6z"/>
<path d="M3100 139 c0 -5 11 -9 25 -9 14 0 25 2 25 4 0 2 -11 6 -25 8 -14 3
-25 1 -25 -3z"/>
<path d="M221 126 c-13 -15 -7 -90 9 -116 12 -19 37 -5 60 32 23 37 26 68 8
86 -17 17 -63 15 -77 -2z"/>
<path d="M3209 129 c-15 -5 -1 -7 39 -8 34 -1 62 1 62 3 0 8 -78 11 -101 5z"/>
<path d="M3363 113 c15 -2 37 -2 50 0 12 2 0 4 -28 4 -27 0 -38 -2 -22 -4z"/>
</g>
</svg>
